<svg xmlns="http://www.w3.org/2000/svg" version="1.1" xmlns:xlink="http://www.w3.org/1999/xlink" xmlns:svgjs="http://svgjs.com/svgjs" width="1336" height="768" preserveAspectRatio="none" viewBox="0 0 1336 768"><g mask="url(&quot;#SvgjsMask1040&quot;)" fill="none"><rect width="1336" height="768" x="0" y="0" fill="rgba(220, 222, 225, 1)"></rect><path d="M570.27 138.69L617.91 138.69L617.91 171.73L570.27 171.73z" fill="rgba(131, 161, 172, 1)"></path><path d="M233.02 94.03L288.5 94.03L288.5 106.93L233.02 106.93z" stroke="rgba(255, 255, 255, 1)"></path><path d="M1056.45 353.04a12.36 12.36 0 1 0 7.04-23.69z" fill="rgba(255, 255, 255, 1)"></path><path d="M433.11 524.47a17.67 17.67 0 1 0-24.91-25.07z" fill="rgba(131, 161, 172, 1)"></path><path d="M475.48 45.4 a3.47 3.47 0 1 0 6.94 0 a3.47 3.47 0 1 0 -6.94 0z" stroke="rgba(131, 161, 172, 1)"></path><path d="M327.61 507.59 a8.87 8.87 0 1 0 17.74 0 a8.87 8.87 0 1 0 -17.74 0z" stroke="rgba(131, 161, 172, 1)"></path><path d="M728.11 541.56L776.71 541.56L776.71 590.16L728.11 590.16z" stroke="rgba(131, 161, 172, 1)"></path><path d="M73.1 479.22a38.12 38.12 0 1 0 67.33 35.77z" fill="rgba(255, 255, 255, 1)"></path><path d="M853.28 599.57 a22.39 22.39 0 1 0 44.78 0 a22.39 22.39 0 1 0 -44.78 0z" stroke="rgba(255, 255, 255, 1)"></path><path d="M1041.94 462.52L1076.49 462.52L1076.49 497.07L1041.94 497.07z" fill="rgba(255, 255, 255, 1)"></path><path d="M186.05 6.79L187.54 6.79L187.54 80.84L186.05 80.84z" stroke="rgba(255, 255, 255, 1)"></path><path d="M189.71 475.56 a24.49 24.49 0 1 0 48.98 0 a24.49 24.49 0 1 0 -48.98 0z" fill="rgba(255, 255, 255, 1)"></path><path d="M232.13 267.74L267.97 267.74L267.97 303.58L232.13 303.58z" fill="rgba(255, 255, 255, 1)"></path><path d="M312.99 347.65L351.94 347.65L351.94 361.08L312.99 361.08z" stroke="rgba(255, 255, 255, 1)"></path><path d="M515.47 488.82L556.45 488.82L556.45 529.8L515.47 529.8z" stroke="rgba(255, 255, 255, 1)"></path><path d="M472.62 643.51a14.27 14.27 0 1 0 7.15 27.63z" fill="rgba(255, 255, 255, 1)"></path><path d="M298.65 600.12a39.94 39.94 0 1 0-21.49 76.94z" fill="rgba(131, 161, 172, 1)"></path><path d="M1023.31 58.49L1064.35 58.49L1064.35 133.76L1023.31 133.76z" stroke="rgba(255, 255, 255, 1)"></path><path d="M72.37 271.07L86.06 271.07L86.06 284.76L72.37 284.76z" fill="rgba(131, 161, 172, 1)"></path><path d="M234.95 675.94L297.47 675.94L297.47 743.84L234.95 743.84z" stroke="rgba(255, 255, 255, 1)"></path><path d="M249.82 175.42L298.69 175.42L298.69 224.29L249.82 224.29z" stroke="rgba(255, 255, 255, 1)"></path><path d="M819.2 683.71L854.06 683.71L854.06 718.57L819.2 718.57z" stroke="rgba(131, 161, 172, 1)"></path></g><defs><mask id="SvgjsMask1040"><rect width="1336" height="768" fill="#ffffff"></rect></mask></defs></svg>